<svg viewBox="0 0 19 18" xmlns="http://www.w3.org/2000/svg"><path d="M12.71 0H5.777C2.587 0 0 2.519 0 5.625v6.75C0 15.481 2.587 18 5.777 18h6.933c3.19 0 5.778-2.519 5.778-5.625v-6.75C18.488 2.519 15.9 0 12.71 0zm4.045 12.375c0 2.171-1.815 3.938-4.045 3.938H5.777c-2.23 0-4.044-1.767-4.044-3.938v-6.75c0-2.171 1.814-3.938 4.044-3.938h6.933c2.23 0 4.045 1.767 4.045 3.938v6.75z"/><path d="M9.244 4.5C6.69 4.5 4.622 6.515 4.622 9s2.07 4.5 4.622 4.5 4.622-2.015 4.622-4.5-2.07-4.5-4.622-4.5zm0 7.313c-1.592 0-2.889-1.263-2.889-2.813 0-1.551 1.297-2.812 2.889-2.812 1.592 0 2.889 1.26 2.889 2.812 0 1.55-1.297 2.813-2.89 2.813zm4.969-7.051c.34 0 .615-.268.615-.6 0-.33-.275-.6-.615-.6a.608.608 0 00-.616.6c0 .332.275.6.616.6z"/></svg>