<svg width="18" height="19" xmlns="http://www.w3.org/2000/svg"><path fill-rule="evenodd" clip-rule="evenodd" d="M18 9.625a9 9 0 01-13.748 7.648L0 18.625l1.44-4.114A9 9 0 1118 9.626zm-5.546 1.052l1.409 1.41c.352.352.352.956 0 1.358l-.957.957c-1.006 1.006-3.674-.101-6.04-2.467-2.365-2.365-3.421-5.033-2.465-6.04l.956-.955c.352-.353.956-.353 1.359 0l1.41 1.409c.502.503.301 1.359-.353 1.56-.453.151-.755.654-.604 1.107.252 1.057 1.61 2.366 2.617 2.617.453.101.956-.15 1.107-.604.202-.654 1.057-.855 1.56-.352z"/></svg>