<?xml version="1.0" encoding="utf-8"?><svg viewBox="0 0 52 48" xmlns="http://www.w3.org/2000/svg" xmlns:xlink="http://www.w3.org/1999/xlink"><style>:root>svg{display:none}:root>svg:target{display:block}</style><svg fill="none" viewBox="0 0 14 14" id="clock" xmlns="http://www.w3.org/2000/svg"><path d="M7 0C3.14 0 0 3.14 0 7s3.14 7 7 7 7-3.14 7-7-3.14-7-7-7Zm0 12.517a5.51 5.51 0 0 1-5.502-5.503C1.498 3.99 3.975 1.512 7 1.512s5.502 2.478 5.502 5.502A5.51 5.51 0 0 1 7 12.517Z" fill="#009344"/><path d="M10.644 6.784h-3.14V3.01a.578.578 0 0 0-.576-.576.578.578 0 0 0-.576.576v4.35c0 .317.26.576.576.576h3.716c.317 0 .576-.26.576-.576a.578.578 0 0 0-.576-.576Z" fill="#009344"/></svg><svg viewBox="0 0 19 18" id="instagram" xmlns="http://www.w3.org/2000/svg"><path d="M12.71 0H5.777C2.587 0 0 2.519 0 5.625v6.75C0 15.481 2.587 18 5.777 18h6.933c3.19 0 5.778-2.519 5.778-5.625v-6.75C18.488 2.519 15.9 0 12.71 0Zm4.045 12.375c0 2.171-1.815 3.938-4.045 3.938H5.777c-2.23 0-4.044-1.767-4.044-3.938v-6.75c0-2.171 1.814-3.938 4.044-3.938h6.933c2.23 0 4.045 1.767 4.045 3.938v6.75Z"/><path d="M9.244 4.5C6.69 4.5 4.622 6.515 4.622 9s2.07 4.5 4.622 4.5 4.622-2.015 4.622-4.5-2.07-4.5-4.622-4.5Zm0 7.313c-1.592 0-2.889-1.263-2.889-2.813 0-1.551 1.297-2.812 2.889-2.812 1.592 0 2.889 1.26 2.889 2.812 0 1.55-1.297 2.813-2.89 2.813ZM14.213 4.762c.34 0 .615-.268.615-.6 0-.33-.275-.6-.615-.6a.608.608 0 0 0-.616.6c0 .332.275.6.616.6Z"/></svg><svg fill="none" viewBox="0 0 14 11" id="mail" xmlns="http://www.w3.org/2000/svg"><path d="M7 7.444 5.268 5.832.316 10.347c.18.178.423.288.69.288h11.987c.267 0 .509-.11.688-.288L8.73 5.832 7 7.444Z" fill="#009344"/><path d="M13.684.288A.975.975 0 0 0 12.993 0H1.007a.972.972 0 0 0-.69.29L7 6.382 13.684.288ZM0 .934V9.77l4.833-4.368L0 .934ZM9.167 5.403 14 9.772V.932L9.167 5.403Z" fill="#009344"/></svg><svg fill="none" viewBox="0 0 10 16" id="map" xmlns="http://www.w3.org/2000/svg"><path d="M5 0A5 5 0 0 0 .456 7.09l3.809 8.264c.182.398.444.646.735.646s.553-.248.735-.645L9.544 7.09A5 5 0 0 0 5 0Zm0 8a3 3 0 1 1 .002-6.002A3 3 0 0 1 5 8Z" fill="#009344"/></svg><svg fill="none" viewBox="0 0 14 14" id="phone" xmlns="http://www.w3.org/2000/svg"><path d="M10.644 9.261c-.458-.451-1.029-.451-1.483 0-.347.344-.693.688-1.034 1.037-.094.097-.172.117-.286.053-.224-.123-.463-.222-.679-.356-1.005-.632-1.847-1.445-2.592-2.36-.37-.454-.7-.94-.93-1.488-.046-.11-.038-.184.053-.274.346-.335.684-.679 1.025-1.022.475-.478.475-1.038-.003-1.518-.27-.274-.542-.542-.813-.816-.28-.28-.556-.562-.839-.839-.457-.446-1.028-.446-1.483.003-.35.344-.684.696-1.04 1.034-.329.312-.495.694-.53 1.14-.055.725.123 1.41.373 2.076.513 1.381 1.294 2.608 2.24 3.732a13.865 13.865 0 0 0 4.592 3.592c.804.39 1.637.69 2.543.74.624.035 1.166-.122 1.6-.608.297-.333.632-.636.946-.953.467-.472.47-1.043.006-1.51-.553-.556-1.11-1.11-1.666-1.663ZM10.087 6.94l1.075-.184A4.805 4.805 0 0 0 9.82 4.163a4.779 4.779 0 0 0-2.738-1.366l-.152 1.08A3.708 3.708 0 0 1 9.05 4.936a3.707 3.707 0 0 1 1.037 2.004ZM11.768 2.267A7.927 7.927 0 0 0 7.224 0l-.152 1.08A6.874 6.874 0 0 1 11 3.04a6.868 6.868 0 0 1 1.926 3.714L14 6.569a7.984 7.984 0 0 0-2.232-4.302Z" fill="#009344"/></svg><svg viewBox="0 0 48 48" id="quote" xmlns="http://www.w3.org/2000/svg"><path fill-rule="evenodd" clip-rule="evenodd" d="M18.853 9.116c-7.53 4.836-11.714 10.465-12.55 16.887C5 36 13.94 40.893 18.47 36.497 23 32.1 20.285 26.52 17.005 24.994c-3.28-1.525-5.286-.994-4.936-3.032.35-2.039 5.016-7.69 9.116-10.323a.749.749 0 0 0 .114-1.02L20.285 9.3c-.44-.572-.862-.55-1.432-.185ZM38.679 9.116c-7.53 4.836-11.714 10.465-12.55 16.887-1.303 9.997 7.637 14.89 12.167 10.494 4.53-4.397 1.815-9.977-1.466-11.503-3.28-1.525-5.286-.994-4.936-3.032.35-2.039 5.017-7.69 9.117-10.323a.749.749 0 0 0 .113-1.02L40.11 9.3c-.44-.572-.862-.55-1.431-.185Z"/></svg><svg viewBox="0 0 19 16" id="telegram" xmlns="http://www.w3.org/2000/svg"><path d="M7.254 10.511 6.948 14.7c.438 0 .627-.183.855-.402l2.051-1.91 4.25 3.031c.78.424 1.33.2 1.54-.698l2.79-12.729C18.683.869 18.019.43 17.259.705L.858 6.818c-1.119.423-1.102 1.03-.19 1.306l4.193 1.27L14.6 3.46c.457-.296.874-.132.531.163l-7.878 6.887Z"/></svg><svg viewBox="0 0 18 19" id="whatsapp" xmlns="http://www.w3.org/2000/svg"><path fill-rule="evenodd" clip-rule="evenodd" d="M18 9.625a9 9 0 0 1-13.748 7.648L0 18.625l1.44-4.114A9 9 0 1 1 18 9.626Zm-5.546 1.052 1.409 1.41c.352.352.352.956 0 1.358l-.957.957c-1.006 1.006-3.674-.101-6.04-2.467-2.365-2.365-3.421-5.033-2.465-6.04l.956-.955c.352-.353.956-.353 1.359 0l1.41 1.409c.502.503.301 1.359-.353 1.56-.453.151-.755.654-.604 1.107.252 1.057 1.61 2.366 2.617 2.617.453.101.956-.15 1.107-.604.202-.654 1.057-.855 1.56-.352Z"/></svg><svg viewBox="0 0 52 36" id="youtube" xmlns="http://www.w3.org/2000/svg"><path d="M50.469 5.719c-.563-2.25-2.344-4.032-4.5-4.594C41.937 0 26 0 26 0S9.969 0 5.937 1.125C3.781 1.688 2 3.469 1.438 5.719.313 9.656.313 18.094.313 18.094s0 8.343 1.125 12.375c.563 2.25 2.344 3.937 4.5 4.5C9.97 36 26 36 26 36s15.938 0 19.969-1.031c2.156-.563 3.937-2.25 4.5-4.5 1.125-4.032 1.125-12.375 1.125-12.375s0-8.438-1.125-12.375ZM20.75 25.687V10.5l13.313 7.594-13.313 7.593Z"/></svg></svg>